<svg xmlns="http://www.w3.org/2000/svg" viewBox="0 0 1280 720" preserveAspectRatio="xMidYMid slice">
<defs>
<radialGradient id="g1" cx="78%" cy="22%" r="95%">
<stop offset="0%" stop-color="#0090d0" stop-opacity="0.34"/>
<stop offset="46%" stop-color="#0090d0" stop-opacity="0.10"/>
<stop offset="100%" stop-color="#0a0a0b" stop-opacity="0"/>
</radialGradient>
<linearGradient id="g2" x1="0" y1="0" x2="0" y2="1">
<stop offset="0%" stop-color="#141417"/>
<stop offset="100%" stop-color="#0a0a0b"/>
</linearGradient>
<linearGradient id="sweep" x1="0" y1="0" x2="1" y2="0">
<stop offset="0%" stop-color="#0090d0" stop-opacity="0"/>
<stop offset="55%" stop-color="#0090d0" stop-opacity="0.85"/>
<stop offset="100%" stop-color="#0090d0" stop-opacity="0"/>
</linearGradient>
</defs>
<rect width="1280" height="720" fill="url(#g2)"/>
<rect width="1280" height="720" fill="url(#g1)"/>
<rect x="210" y="392" width="279" height="8.5" rx="4.2" fill="#0090d0" opacity="0.13" transform="rotate(-15.5 210 392)"/><rect x="362" y="358" width="796" height="6.7" rx="3.4" fill="#0090d0" opacity="0.35" transform="rotate(-15.5 362 358)"/><rect x="344" y="602" width="951" height="5.7" rx="2.8" fill="#0090d0" opacity="0.06" transform="rotate(-14.6 344 602)"/><rect x="321" y="58" width="1009" height="7.7" rx="3.8" fill="#0090d0" opacity="0.27" transform="rotate(-15.6 321 58)"/><rect x="-40" y="219" width="437" height="8.0" rx="4.0" fill="#0090d0" opacity="0.18" transform="rotate(-13.0 -40 219)"/><rect x="-72" y="659" width="303" height="2.1" rx="1.1" fill="#0090d0" opacity="0.18" transform="rotate(-13.6 -72 659)"/><rect x="391" y="310" width="872" height="6.2" rx="3.1" fill="#0090d0" opacity="0.08" transform="rotate(-16.0 391 310)"/><rect x="16" y="667" width="812" height="8.7" rx="4.4" fill="#0090d0" opacity="0.28" transform="rotate(-14.9 16 667)"/><rect x="-30" y="662" width="388" height="5.0" rx="2.5" fill="#0090d0" opacity="0.28" transform="rotate(-12.9 -30 662)"/><rect x="-81" y="509" width="669" height="4.2" rx="2.1" fill="#0090d0" opacity="0.17" transform="rotate(-12.7 -81 509)"/><rect x="30" y="421" width="320" height="8.9" rx="4.4" fill="#0090d0" opacity="0.06" transform="rotate(-13.0 30 421)"/><rect x="-30" y="612" width="407" height="7.2" rx="3.6" fill="#0090d0" opacity="0.35" transform="rotate(-12.5 -30 612)"/><rect x="-95" y="655" width="399" height="8.6" rx="4.3" fill="#0090d0" opacity="0.23" transform="rotate(-13.8 -95 655)"/><rect x="2" y="122" width="561" height="8.4" rx="4.2" fill="#0090d0" opacity="0.11" transform="rotate(-15.6 2 122)"/>
<circle cx="937" cy="41" r="1.4" fill="#ffffff" opacity="0.50"/><circle cx="187" cy="636" r="1.3" fill="#ffffff" opacity="0.46"/><circle cx="980" cy="357" r="3.2" fill="#ffffff" opacity="0.18"/><circle cx="740" cy="48" r="2.8" fill="#ffffff" opacity="0.41"/><circle cx="401" cy="287" r="2.5" fill="#ffffff" opacity="0.46"/><circle cx="1273" cy="106" r="1.6" fill="#ffffff" opacity="0.42"/><circle cx="211" cy="508" r="1.8" fill="#ffffff" opacity="0.48"/><circle cx="994" cy="552" r="3.8" fill="#ffffff" opacity="0.44"/><circle cx="949" cy="388" r="2.0" fill="#ffffff" opacity="0.34"/><circle cx="204" cy="462" r="3.3" fill="#ffffff" opacity="0.19"/>
<rect x="0" y="600" width="1280" height="4" fill="url(#sweep)" transform="rotate(-14 640 602)"/>
<text x="64" y="648" font-family="'Zen Dots', sans-serif" font-size="58" letter-spacing="14" fill="#ffffff" opacity="0.16" style="text-transform:uppercase">F2</text>
</svg>