<svg xmlns="http://www.w3.org/2000/svg" viewBox="0 0 1280 720" preserveAspectRatio="xMidYMid slice">
<defs>
<radialGradient id="g1" cx="78%" cy="22%" r="95%">
<stop offset="0%" stop-color="#7a7a85" stop-opacity="0.34"/>
<stop offset="46%" stop-color="#7a7a85" stop-opacity="0.10"/>
<stop offset="100%" stop-color="#0a0a0b" stop-opacity="0"/>
</radialGradient>
<linearGradient id="g2" x1="0" y1="0" x2="0" y2="1">
<stop offset="0%" stop-color="#141417"/>
<stop offset="100%" stop-color="#0a0a0b"/>
</linearGradient>
<linearGradient id="sweep" x1="0" y1="0" x2="1" y2="0">
<stop offset="0%" stop-color="#7a7a85" stop-opacity="0"/>
<stop offset="55%" stop-color="#7a7a85" stop-opacity="0.85"/>
<stop offset="100%" stop-color="#7a7a85" stop-opacity="0"/>
</linearGradient>
</defs>
<rect width="1280" height="720" fill="url(#g2)"/>
<rect width="1280" height="720" fill="url(#g1)"/>
<rect x="-41" y="523" width="277" height="2.5" rx="1.3" fill="#7a7a85" opacity="0.35" transform="rotate(-12.2 -41 523)"/><rect x="246" y="305" width="387" height="3.4" rx="1.7" fill="#7a7a85" opacity="0.24" transform="rotate(-15.6 246 305)"/><rect x="29" y="579" width="401" height="7.3" rx="3.7" fill="#7a7a85" opacity="0.34" transform="rotate(-12.7 29 579)"/><rect x="-27" y="278" width="585" height="2.6" rx="1.3" fill="#7a7a85" opacity="0.13" transform="rotate(-14.4 -27 278)"/><rect x="247" y="255" width="406" height="5.7" rx="2.8" fill="#7a7a85" opacity="0.31" transform="rotate(-15.2 247 255)"/><rect x="15" y="85" width="931" height="4.7" rx="2.4" fill="#7a7a85" opacity="0.10" transform="rotate(-13.8 15 85)"/><rect x="-54" y="619" width="826" height="2.2" rx="1.1" fill="#7a7a85" opacity="0.18" transform="rotate(-12.9 -54 619)"/><rect x="205" y="152" width="358" height="7.4" rx="3.7" fill="#7a7a85" opacity="0.06" transform="rotate(-15.1 205 152)"/><rect x="-40" y="177" width="594" height="8.6" rx="4.3" fill="#7a7a85" opacity="0.14" transform="rotate(-15.2 -40 177)"/><rect x="377" y="267" width="1001" height="8.2" rx="4.1" fill="#7a7a85" opacity="0.21" transform="rotate(-15.7 377 267)"/><rect x="122" y="635" width="1044" height="8.5" rx="4.2" fill="#7a7a85" opacity="0.08" transform="rotate(-15.4 122 635)"/><rect x="363" y="216" width="991" height="4.8" rx="2.4" fill="#7a7a85" opacity="0.15" transform="rotate(-12.9 363 216)"/><rect x="266" y="501" width="308" height="6.5" rx="3.3" fill="#7a7a85" opacity="0.21" transform="rotate(-14.9 266 501)"/><rect x="-3" y="425" width="863" height="9.0" rx="4.5" fill="#7a7a85" opacity="0.08" transform="rotate(-12.1 -3 425)"/>
<circle cx="322" cy="467" r="2.0" fill="#ffffff" opacity="0.41"/><circle cx="370" cy="178" r="1.0" fill="#ffffff" opacity="0.27"/><circle cx="159" cy="241" r="2.4" fill="#ffffff" opacity="0.26"/><circle cx="244" cy="621" r="2.4" fill="#ffffff" opacity="0.50"/><circle cx="1271" cy="536" r="1.4" fill="#ffffff" opacity="0.22"/><circle cx="855" cy="56" r="1.5" fill="#ffffff" opacity="0.36"/><circle cx="260" cy="28" r="1.3" fill="#ffffff" opacity="0.47"/><circle cx="418" cy="307" r="3.1" fill="#ffffff" opacity="0.28"/><circle cx="81" cy="646" r="3.4" fill="#ffffff" opacity="0.27"/><circle cx="1224" cy="608" r="3.7" fill="#ffffff" opacity="0.22"/>
<rect x="0" y="600" width="1280" height="4" fill="url(#sweep)" transform="rotate(-14 640 602)"/>
<text x="64" y="648" font-family="'Zen Dots', sans-serif" font-size="58" letter-spacing="14" fill="#ffffff" opacity="0.16" style="text-transform:uppercase">MOTORSPORT</text>
</svg>